# xmcd
#
# Track frame offsets:
#	150
#	15689
#	30494
#	47870
#	70241
#	87774
#	102372
#	119001
#	138881
#	155705
#	172716
#	194293
#
# Disc length: 2787 seconds
# Revision: 0
# Processed by: cddbd v1.5.2PL0 Copyright (c) Steve Scherf et al.
# Submitted via: dBpowerAMP V12.0
#
DISCID=9a0ae10c
DTITLE=Trinity River Band - Things We Do For Dreams
DYEAR=2016
DGENRE=Country
TTITLE0=Between Me and Jolene
TTITLE1=Time's a Crooked Thing
TTITLE2=The Promised Land
TTITLE3=Lover's Leap
TTITLE4=The Mirror
TTITLE5=Ten Miles To Deep Gap
TTITLE6=The Things We Do For Dreams
TTITLE7=Silver And Gold
TTITLE8=Right Where She Left Him
TTITLE9=My Own Worst Enemy
TTITLE10=Secrets
TTITLE11=Come Back Train
EXTD=
EXTT0=
EXTT1=
EXTT2=
EXTT3=
EXTT4=
EXTT5=
EXTT6=
EXTT7=
EXTT8=
EXTT9=
EXTT10=
EXTT11=
PLAYORDER=
